<svg width="38" height="33" viewBox="0 0 38 33" fill="none" xmlns="http://www.w3.org/2000/svg">
<path fill-rule="evenodd" clip-rule="evenodd" d="M6.33342 2.67163H31.6668C33.4157 2.67163 34.8334 3.86782 34.8334 5.34338V26.7174C34.8334 28.193 33.4157 29.3892 31.6668 29.3892H6.33342C4.58451 29.3892 3.16675 28.193 3.16675 26.7174V5.34338C3.16675 3.86782 4.58451 2.67163 6.33342 2.67163ZM6.3334 5.34336V26.7174H31.6667V5.34336H6.3334ZM17.6274 16.0363H20.5834V24.0457H23.7501V16.0363H26.8889V13.3645H23.7501V12.0228C23.7501 11.285 24.4589 10.6869 25.3334 10.6869H26.9167V8.01516H25.3334C22.71 8.01516 20.5834 9.80944 20.5834 12.0228V13.3645H17.6274V16.0363Z" fill="white"/>
</svg>
