<svg width="720" height="360" viewBox="0 0 720 360" fill="none" xmlns="http://www.w3.org/2000/svg">
<g clip-path="url(#clip0)">
<path d="M692.148 23.8335H371.667V183.981H692.148V23.8335Z" fill="#E6E6E6"/>
<path d="M334.819 329.221L342.41 327.034C343.757 323.549 344.906 319.99 345.852 316.375L342.287 316.245L346.173 315.125C347.298 310.644 347.76 307.605 347.76 307.605C347.76 307.605 332.365 312.187 320.772 321.129L319.342 331.159L317.973 323.447C316.712 324.566 315.522 325.763 314.41 327.032C303.25 339.856 298.393 353.895 303.562 358.389C308.732 362.883 321.97 356.13 333.131 343.305C336.585 339.141 339.38 334.472 341.418 329.461L334.819 329.221Z" fill="#E6E6E6"/>
<path d="M47.2438 283.528L42.9173 266.473C35.2459 263.224 27.3971 260.41 19.4085 258.044L18.8622 265.97L16.6471 257.238C6.73987 254.411 0 253.165 0 253.165C0 253.165 9.10404 287.765 28.199 314.217L50.4489 318.123L33.1636 320.613C35.5666 323.502 38.149 326.238 40.8955 328.803C68.6733 354.571 99.6126 366.394 110 355.21C120.388 344.025 106.291 314.068 78.5127 288.3C69.9013 280.311 59.0836 273.9 48.2551 268.855L47.2438 283.528Z" fill="#E6E6E6"/>
<path d="M88.3919 265.007L93.5089 248.173C88.6223 241.428 83.3589 234.964 77.7439 228.812L73.177 235.315L75.7969 226.696C68.7782 219.157 63.6527 214.609 63.6527 214.609C63.6527 214.609 53.5512 248.931 56.2164 281.44L73.243 296.278L57.1578 289.48C57.7207 293.195 58.5167 296.87 59.5413 300.485C69.9927 336.894 90.3633 362.998 105.04 358.79C119.717 354.582 123.143 321.655 112.692 285.246C109.451 273.958 103.507 262.882 96.8465 252.969L88.3919 265.007Z" fill="#E6E6E6"/>
<path d="M157.609 335.478L159.396 343.513L171.903 342.62L171.009 333.692L157.609 335.478Z" fill="#FFB8B8"/>
<path d="M126.343 335.478L124.556 343.513L112.049 342.62L112.943 333.692L126.343 335.478Z" fill="#FFB8B8"/>
<path d="M122.769 74.7782C132.143 74.7782 139.743 67.1835 139.743 57.8149C139.743 48.4463 132.143 40.8516 122.769 40.8516C113.395 40.8516 105.796 48.4463 105.796 57.8149C105.796 67.1835 113.395 74.7782 122.769 74.7782Z" fill="#FFB8B8"/>
<path d="M112.049 62.2786L107.583 82.8135L129.916 89.9558L129.022 64.0647L112.049 62.2786Z" fill="#FFB8B8"/>
<path d="M120.089 85.4918L108.85 76.9873C108.85 76.9873 106.689 73.8853 105.796 76.5637C104.903 79.2421 96.8628 89.0631 96.8628 89.0631L103.116 162.273L150.463 163.166C150.463 163.166 131.962 77.8229 129.599 80.7646C127.236 83.7062 120.983 83.7061 120.089 85.4918Z" fill="#D0CDE1"/>
<path d="M129.469 75.2246C129.469 75.2246 125.896 78.7958 127.683 81.4743C129.469 84.1527 128.129 89.1194 129.916 89.5376C131.703 89.9559 128.129 120.311 133.489 128.347C138.849 136.382 136.169 156.916 136.169 160.488C136.169 164.059 141.529 185.486 141.529 185.486C141.529 185.486 159.396 187.272 159.396 182.808C159.396 178.344 153.143 147.096 153.143 147.096L158.503 91.7415C158.503 91.7415 158.503 86.3847 152.249 84.5991C145.996 82.8135 133.489 78.3494 133.489 78.3494L129.469 75.2246Z" fill="#2F2E41"/>
<path d="M154.929 139.953H150.463C150.463 139.953 127.236 141.739 129.023 131.918C130.809 122.097 148.676 129.239 148.676 129.239L154.036 131.918L154.929 139.953Z" fill="#FFB8B8"/>
<path d="M109.56 73.723C109.56 73.723 102.223 78.3492 101.33 80.1348C100.436 81.9205 79.8896 91.7413 79.8896 98.8838C79.8896 106.026 86.143 114.062 86.143 114.062L94.1829 192.629C94.1829 192.629 107.583 197.093 108.476 193.521C109.37 189.95 112.943 111.383 111.156 107.812C109.37 104.241 109.37 81.0276 109.37 81.0276L109.56 73.723Z" fill="#2F2E41"/>
<path d="M86.1429 203.342L85.2495 208.699C85.2495 208.699 86.1428 226.555 93.2895 225.663C100.436 224.77 95.9695 206.914 95.9695 206.914L95.0762 203.342H86.1429Z" fill="#FFB8B8"/>
<path d="M96.8628 157.809C96.8628 157.809 97.7561 238.162 102.223 264.053C106.689 289.945 108.476 334.585 108.476 334.585C108.476 334.585 120.089 336.371 121.876 337.264C123.663 338.156 128.129 335.478 128.129 335.478L129.023 203.343L145.996 263.161C145.996 263.161 148.676 335.478 154.036 337.264C159.396 339.049 175.476 335.478 175.476 335.478C175.476 335.478 169.222 266.732 167.436 264.053C165.649 261.375 161.183 182.808 154.036 168.523L151.356 158.702C151.356 158.702 100.436 160.488 96.8628 157.809Z" fill="#2F2E41"/>
<path d="M160.289 339.942C160.289 339.942 155.822 336.371 155.822 339.049C155.822 341.727 151.356 358.244 156.716 358.244C162.076 358.244 197.809 361.369 196.916 354.227C196.022 347.084 174.526 335.679 174.526 335.679C174.526 335.679 166.542 338.156 165.649 339.049C164.756 339.942 160.289 339.942 160.289 339.942Z" fill="#2F2E41"/>
<path d="M123.663 339.942C123.663 339.942 128.129 336.371 128.129 339.049C128.129 341.727 132.596 358.244 127.236 358.244C121.876 358.244 86.1429 361.369 87.0362 354.227C87.9296 347.084 109.426 335.679 109.426 335.679C109.426 335.679 117.409 338.156 118.303 339.049C119.196 339.942 123.663 339.942 123.663 339.942Z" fill="#2F2E41"/>
<path d="M152.249 90.8485L158.503 91.7413L171.009 127.454C171.009 127.454 174.583 145.31 169.223 147.988C163.863 150.667 153.746 150.143 153.746 150.143L152.249 130.132L156.716 131.025L152.249 122.097V90.8485Z" fill="#2F2E41"/>
<path d="M84.3561 95.3126L79.8894 98.8839C79.8894 98.8839 75.4228 144.417 76.3161 148.881C77.2095 153.345 82.5694 207.806 82.5694 207.806L97.7561 204.235L87.0361 96.2055L84.3561 95.3126Z" fill="#2F2E41"/>
<path d="M103.992 45.4854C103.992 45.4854 99.05 39.2201 103.992 36.0875V37.6538C103.992 37.6538 114.581 25.9064 120.935 29.0391L126.582 27.4728V29.0391L130.112 27.4728L129.406 29.8222H134.348L132.23 31.3886C132.23 31.3886 148.467 30.6054 138.584 42.3527C138.584 42.3527 143.282 49.396 138.815 53.3143C138.815 53.3143 135.054 44.7022 130.112 47.0517C128.774 47.7462 127.263 48.0417 125.761 47.9028C124.26 47.764 122.829 47.1967 121.641 46.2685C121.641 46.2685 111.757 45.4853 113.169 50.1843C114.581 54.8832 113.875 56.4495 113.875 56.4495C113.875 56.4495 110.345 58.799 111.051 60.3653C111.757 61.9316 111.757 66.6306 111.757 66.6306C111.757 66.6306 108.227 61.1485 106.816 61.9316C105.404 62.7148 97.6381 54.8832 103.992 45.4854Z" fill="#2F2E41"/>
<path d="M297.661 101.559L260.099 102.492L255.043 57.7285H297.661V101.559Z" fill="#2F2E41"/>
<path d="M257.9 159.587L244.189 254.595C244.189 254.595 232.306 288.396 231.392 304.839L227.736 328.591L244.189 332.245L261.556 265.557L285.322 205.264L282.58 274.693L277.095 331.332L293.549 334.072L303.603 261.903L314.572 208.918C314.572 208.918 322.799 163.242 310.002 158.674L257.9 159.587Z" fill="#2F2E41"/>
<path d="M243.089 322.761L241.259 344.996C241.259 344.996 260.839 356.309 254.557 358.502C248.274 360.695 239.676 357.873 237.917 357.375C236.059 356.849 232.592 356.009 229.968 355.388C228.754 355.11 227.66 354.451 226.848 353.506C226.036 352.562 225.548 351.383 225.456 350.141L225.451 350.059C225.293 347.323 231.469 323.547 231.469 323.547L243.089 322.761Z" fill="#2F2E41"/>
<path d="M290.636 323.317L292.178 344.578C292.178 344.578 314.474 352.857 308.726 356.209C302.979 359.561 293.999 358.434 292.178 358.281C288.819 357.998 280.46 357.716 280.46 357.716C280.46 357.716 278.915 359.053 278.237 356.398C277.558 353.743 279.141 330.021 279.141 330.021L290.636 323.317Z" fill="#2F2E41"/>
<path d="M277.096 82.8507C286.687 82.8507 294.463 75.0797 294.463 65.4936C294.463 55.9075 286.687 48.1365 277.096 48.1365C267.504 48.1365 259.728 55.9075 259.728 65.4936C259.728 75.0797 267.504 82.8507 277.096 82.8507Z" fill="#FFB8B8"/>
<path d="M267.041 75.5424L263.385 95.6403L278.924 102.949L282.58 77.3699L267.041 75.5424Z" fill="#FFB8B8"/>
<path d="M265.213 170.55L284.408 184.253C284.408 184.253 292.635 205.264 299.033 201.61C305.432 197.956 291.721 179.685 291.721 179.685L276.181 164.155L265.213 170.55Z" fill="#FFB8B8"/>
<path d="M320.057 164.155L321.885 175.118C321.885 175.118 317.314 197.956 311.83 193.388C306.346 188.821 313.658 174.204 313.658 174.204L312.744 165.069L320.057 164.155Z" fill="#FFB8B8"/>
<path d="M277.095 97.4673L275.267 90.159L264.298 84.6779L260.642 89.2455L248.759 92.8996L262.47 165.982C262.47 165.982 309.088 168.723 310.002 161.415C310.916 154.106 300.861 134.009 300.861 134.009C300.861 134.009 303.603 123.96 302.689 118.479L299.033 96.5538L284.408 91.9861L281.068 87.9475L278.009 92.8996L277.095 97.4673Z" fill="#D0CDE1"/>
<path d="M251.502 94.7267L248.759 92.8997C248.759 92.8997 243.275 93.8132 241.447 101.121C239.619 108.43 241.447 141.317 246.017 147.712C250.588 154.106 263.385 173.291 263.385 173.291L280.752 165.069L262.47 144.057L257.9 117.565L251.502 94.7267Z" fill="#D0CDE1"/>
<path d="M291.721 98.3809L299.033 96.5538C299.033 96.5538 303.604 98.3809 305.432 104.776C307.26 111.17 317.315 143.144 316.401 145.885C315.486 148.625 324.627 166.896 324.627 166.896L311.83 167.809L304.518 148.625L297.205 129.441L291.721 98.3809Z" fill="#D0CDE1"/>
<path d="M246.995 81.977C250.657 79.9669 252.362 75.4552 252.483 71.2809C252.605 67.1066 251.592 62.9754 251.512 58.8001C251.471 57.9458 251.544 57.09 251.729 56.255C252.033 55.2185 252.506 54.2394 253.13 53.3573C257.893 46.0635 266.172 40.9327 274.893 40.852C276.153 40.8355 277.404 41.0654 278.575 41.5286C279.477 41.8895 279.772 41.8453 279.944 42.9517C282.01 42.2706 284.251 42.3418 286.269 43.1527C288.268 43.965 290.133 45.0749 291.8 46.4446C292.79 47.1809 293.725 47.9897 294.596 48.8643C299.205 53.6359 300.266 60.9899 298.931 67.4863C298.497 69.5983 300.579 71.6373 302.303 72.9345C304.026 74.2318 306.016 75.423 306.862 77.4063C307.676 79.3142 307.229 81.4962 307.393 83.5638C307.577 85.5183 308.304 87.3825 309.492 88.946C310.679 90.5095 312.281 91.71 314.115 92.4121C313.741 92.8599 313.253 93.1984 312.702 93.392C312.151 93.5855 311.559 93.627 310.986 93.5119C309.792 93.2603 308.674 92.7286 307.726 91.9605C304.159 89.319 301.607 85.5345 300.496 81.239C299.99 83.5397 300.186 85.9128 300.204 88.2684C300.16 90.8973 300.645 93.5082 301.629 95.9464C302.63 98.3963 304.464 100.415 306.808 101.646C304.548 102.752 302.057 101.95 300.141 100.319C298.305 98.5767 296.979 96.368 296.304 93.9296C295.019 90.0374 294.498 85.9339 294.769 81.8442C292.666 85.3821 291.898 89.5545 292.602 93.6088C293.338 97.7424 295.497 101.488 298.706 104.198C293.111 104.151 287.609 102.766 282.659 100.159C281.38 99.5799 280.254 98.7127 279.367 97.6255C277.774 95.417 278.151 92.4049 278.598 89.7193C278.951 87.5959 276.296 84.526 277.817 83.0012C278.268 82.5551 278.872 82.2958 279.507 82.2752C281.793 82.1043 284.01 81.4102 285.985 80.2467C287.96 79.0832 289.641 77.4814 290.899 75.5651C292.652 72.9302 293.648 69.8648 293.778 66.703C293.777 64.3814 293.274 62.0874 292.304 59.9779C291.334 57.8683 289.92 55.993 288.158 54.48C286.396 52.967 284.328 51.852 282.095 51.2113C279.862 50.5706 277.518 50.4193 275.221 50.7677C272.924 51.1161 270.73 51.956 268.788 53.23C266.846 54.5039 265.202 56.1819 263.969 58.1493C262.735 60.1167 261.942 62.327 261.642 64.6291C261.342 66.9313 261.543 69.2711 262.231 71.4885C262.779 73.2729 263.172 75.1014 263.406 76.9535C263.681 79.1026 264.119 81.2279 264.715 83.311C265.865 87.3143 267.814 91.3992 271.421 93.4874C270.16 94.0271 268.805 94.3138 267.433 94.3312C262.908 94.8295 258.149 94.7195 254.054 92.7333C249.958 90.7471 246.703 86.5173 246.995 81.977Z" fill="#2F2E41"/>
<path d="M256.869 64.2571C269.864 59.0516 282.675 57.9412 295.153 64.2571V53.7647C295.153 51.9523 294.433 50.2141 293.15 48.9325C291.868 47.6509 290.129 46.9309 288.315 46.9309H262.271C261.561 46.9309 260.859 47.0705 260.203 47.3418C259.548 47.6132 258.952 48.0108 258.451 48.5122C257.949 49.0135 257.551 49.6086 257.28 50.2637C257.008 50.9187 256.869 51.6207 256.869 52.3297V64.2571Z" fill="#2F2E41"/>
<path d="M260.912 70.7543C261.97 70.7543 262.828 69.3831 262.828 67.6915C262.828 65.9999 261.97 64.6287 260.912 64.6287C259.855 64.6287 258.997 65.9999 258.997 67.6915C258.997 69.3831 259.855 70.7543 260.912 70.7543Z" fill="#FFB8B8"/>
<path d="M421.859 358.378H0V360H421.859V358.378Z" fill="#3F3D56"/>
<path d="M720 161.769H397.894V0H720V161.769ZM399.517 160.148H718.377V1.62159H399.517V160.148Z" fill="#2E2D57"/>
<path d="M558.014 131.584C558.012 134.171 557.243 136.699 555.804 138.85C554.365 141 552.32 142.676 549.928 143.665C547.536 144.654 544.904 144.913 542.365 144.407C539.826 143.902 537.494 142.656 535.664 140.827C533.833 138.997 532.587 136.667 532.081 134.129C531.576 131.592 531.834 128.962 532.824 126.571C533.814 124.181 535.49 122.137 537.642 120.699C539.793 119.26 542.324 118.491 544.912 118.489C546.634 118.485 548.34 118.82 549.932 119.476C551.524 120.133 552.97 121.097 554.188 122.314C555.405 123.531 556.37 124.976 557.027 126.567C557.684 128.158 558.019 129.863 558.014 131.584Z" fill="#0066CC"/>
<path opacity="0.3" d="M558.014 131.584C558.012 134.171 557.243 136.699 555.804 138.85C554.365 141 552.32 142.676 549.928 143.665C547.536 144.654 544.904 144.913 542.365 144.407C539.826 143.902 537.494 142.656 535.664 140.827C533.833 138.997 532.587 136.667 532.081 134.129C531.576 131.592 531.834 128.962 532.824 126.571C533.814 124.181 535.49 122.137 537.642 120.699C539.793 119.26 542.324 118.491 544.912 118.489C546.634 118.485 548.34 118.82 549.932 119.476C551.524 120.133 552.97 121.097 554.188 122.314C555.405 123.531 556.37 124.976 557.027 126.567C557.684 128.158 558.019 129.863 558.014 131.584Z" fill="black"/>
<path d="M581.744 65.5769C581.769 69.8562 580.887 74.0922 579.156 78.0064C578.407 79.6912 577.508 81.3057 576.471 82.8306C574.322 85.9352 571.743 88.7196 568.812 91.1007C568.309 91.5223 567.758 91.9601 567.019 92.5277C566.095 93.2169 565.064 93.9385 563.88 94.7168C561.788 96.0687 559.776 97.5386 557.852 99.1194C556.711 100.008 555.722 101.076 554.923 102.282C553.926 104.025 553.422 107.398 553.422 112.311V113.122H531.551V109.327C531.551 106.36 531.624 103.863 531.762 101.69C531.861 99.7206 532.067 97.7583 532.378 95.8114C532.592 94.099 533.109 92.4382 533.903 90.9061C535.339 88.5143 538.803 85.263 544.482 80.9658C544.726 80.7874 544.969 80.6009 545.221 80.4144C545.456 80.2523 545.683 80.082 545.918 79.9036C547.886 78.5071 549.697 76.9034 551.321 75.12C551.796 74.5645 552.235 73.9796 552.636 73.3687L552.741 73.2065C554.013 70.9551 554.636 68.3958 554.542 65.8121C554.548 65.1584 554.505 64.5052 554.412 63.8581C554.16 61.3339 552.988 58.9906 551.119 57.2744C549.09 55.4165 546.476 54.3265 543.728 54.1934C543.379 54.1609 543.055 54.1528 542.722 54.1528C541.429 54.1456 540.14 54.2981 538.885 54.6069C536.531 55.1871 534.42 56.4917 532.849 58.3365C532.016 59.3189 531.308 60.4 530.739 61.5554C528.823 65.9743 527.597 70.6613 527.105 75.4524L527.024 76.3037L506.434 70.8227V61.75C506.531 61.3851 506.637 61.0202 506.75 60.6635C508.065 56.1133 510.159 51.8255 512.94 47.9908C514.129 46.3636 515.468 44.8515 516.94 43.4747C517.289 43.126 517.67 42.7855 518.051 42.4531C520.529 40.3035 523.281 38.493 526.237 37.0694L526.496 36.9478C532.095 34.362 538.202 33.0653 544.369 33.1532C545.01 33.1532 545.764 33.1613 546.51 33.2019C552.638 33.3572 558.653 34.8896 564.107 37.6856C566.556 38.9527 568.851 40.498 570.946 42.2909C576.824 47.0793 580.609 53.9642 581.5 61.4904C581.663 62.8465 581.744 64.2111 581.744 65.5769Z" fill="#0066CC"/>
<path opacity="0.3" d="M581.744 65.5769C581.769 69.8562 580.887 74.0922 579.156 78.0064C578.407 79.6912 577.508 81.3057 576.471 82.8306C574.322 85.9352 571.743 88.7196 568.812 91.1007C568.309 91.5223 567.758 91.9601 567.019 92.5277C566.095 93.2169 565.064 93.9385 563.88 94.7168C561.788 96.0687 559.776 97.5386 557.852 99.1194C556.711 100.008 555.722 101.076 554.923 102.282C553.926 104.025 553.422 107.398 553.422 112.311V113.122H531.551V109.327C531.551 106.36 531.624 103.863 531.762 101.69C531.861 99.7206 532.067 97.7583 532.378 95.8114C532.592 94.099 533.109 92.4382 533.903 90.9061C535.339 88.5143 538.803 85.263 544.482 80.9658C544.726 80.7874 544.969 80.6009 545.221 80.4144C545.456 80.2523 545.683 80.082 545.918 79.9036C547.886 78.5071 549.697 76.9034 551.321 75.12C551.796 74.5645 552.235 73.9796 552.636 73.3687L552.741 73.2065C554.013 70.9551 554.636 68.3958 554.542 65.8121C554.548 65.1584 554.505 64.5052 554.412 63.8581C554.16 61.3339 552.988 58.9906 551.119 57.2744C549.09 55.4165 546.476 54.3265 543.728 54.1934C543.379 54.1609 543.055 54.1528 542.722 54.1528C541.429 54.1456 540.14 54.2981 538.885 54.6069C536.531 55.1871 534.42 56.4917 532.849 58.3365C532.016 59.3189 531.308 60.4 530.739 61.5554C528.823 65.9743 527.597 70.6613 527.105 75.4524L527.024 76.3037L506.434 70.8227V61.75C506.531 61.3851 506.637 61.0202 506.75 60.6635C508.065 56.1133 510.159 51.8255 512.94 47.9908C514.129 46.3636 515.468 44.8515 516.94 43.4747C517.289 43.126 517.67 42.7855 518.051 42.4531C520.529 40.3035 523.281 38.493 526.237 37.0694L526.496 36.9478C532.095 34.362 538.202 33.0653 544.369 33.1532C545.01 33.1532 545.764 33.1613 546.51 33.2019C552.638 33.3572 558.653 34.8896 564.107 37.6856C566.556 38.9527 568.851 40.498 570.946 42.2909C576.824 47.0793 580.609 53.9642 581.5 61.4904C581.663 62.8465 581.744 64.2111 581.744 65.5769Z" fill="black"/>
<path d="M549.09 131.584C549.089 134.171 548.319 136.699 546.88 138.85C545.441 141 543.396 142.676 541.004 143.665C538.612 144.654 535.98 144.913 533.441 144.407C530.903 143.902 528.571 142.656 526.74 140.827C524.91 138.997 523.663 136.667 523.157 134.129C522.652 131.592 522.91 128.962 523.9 126.571C524.89 124.181 526.566 122.137 528.718 120.699C530.87 119.26 533.4 118.491 535.988 118.489C537.71 118.485 539.416 118.82 541.008 119.476C542.6 120.133 544.046 121.097 545.264 122.314C546.481 123.531 547.446 124.976 548.103 126.567C548.76 128.158 549.095 129.863 549.09 131.584Z" fill="#0066CC"/>
<path d="M572.82 65.5769C572.845 69.8562 571.963 74.0922 570.232 78.0064C569.483 79.6912 568.584 81.3057 567.547 82.8306C565.398 85.9352 562.819 88.7196 559.888 91.1007C559.385 91.5223 558.834 91.9601 558.095 92.5277C557.171 93.2169 556.14 93.9385 554.956 94.7168C552.864 96.0687 550.852 97.5386 548.928 99.1194C547.787 100.008 546.798 101.076 545.999 102.282C545.002 104.025 544.499 107.398 544.499 112.311V113.122H522.627V109.327C522.627 106.36 522.7 103.863 522.838 101.69C522.937 99.7206 523.143 97.7583 523.454 95.8114C523.668 94.099 524.185 92.4382 524.979 90.9061C526.415 88.5143 529.879 85.263 535.558 80.9658C535.802 80.7874 536.045 80.6009 536.297 80.4144C536.532 80.2523 536.759 80.082 536.994 79.9036C538.962 78.5071 540.773 76.9034 542.397 75.12C542.872 74.5645 543.311 73.9796 543.712 73.3687L543.817 73.2065C545.089 70.9551 545.712 68.3958 545.618 65.8121C545.624 65.1584 545.581 64.5052 545.488 63.8581C545.236 61.3339 544.064 58.9906 542.195 57.2744C540.167 55.4165 537.552 54.3265 534.804 54.1934C534.455 54.1609 534.131 54.1528 533.798 54.1528C532.505 54.1456 531.216 54.2981 529.961 54.6069C527.607 55.1871 525.496 56.4917 523.925 58.3365C523.092 59.3189 522.384 60.4 521.815 61.5554C520.355 64.4661 519.406 68.3255 518.992 73.02L518.911 73.8713L495.758 70.5714L495.871 69.7687C496.278 66.6862 496.932 63.6414 497.826 60.6635C499.141 56.1133 501.235 51.8255 504.016 47.9908C505.205 46.3636 506.544 44.8515 508.016 43.4747C508.365 43.126 508.746 42.7855 509.127 42.4531C511.605 40.3035 514.357 38.493 517.313 37.0694L517.572 36.9478C523.171 34.362 529.278 33.0653 535.445 33.1532C536.086 33.1532 536.84 33.1613 537.586 33.2019C543.714 33.3572 549.729 34.8896 555.183 37.6856C557.632 38.9527 559.927 40.498 562.022 42.2909C567.9 47.0793 571.685 53.9642 572.577 61.4904C572.739 62.8465 572.82 64.2111 572.82 65.5769Z" fill="#0066CC"/>
</g>
<defs>
<clipPath id="clip0">
<rect width="720" height="360" fill="white"/>
</clipPath>
</defs>
</svg>
