<svg width="38" height="33" viewBox="0 0 38 33" fill="none" xmlns="http://www.w3.org/2000/svg">
<path fill-rule="evenodd" clip-rule="evenodd" d="M25.3334 2.67163H12.6667C7.42004 2.67163 3.16675 6.26018 3.16675 10.6869V21.3739C3.16675 25.8006 7.42004 29.3892 12.6667 29.3892H25.3334C30.5801 29.3892 34.8334 25.8006 34.8334 21.3739V10.6869C34.8334 6.26018 30.5801 2.67163 25.3334 2.67163ZM6.3334 10.6869C6.3334 7.73573 9.16893 5.34336 12.6667 5.34336H25.3334C28.8312 5.34336 31.6667 7.73573 31.6667 10.6869V21.3739C31.6667 24.325 28.8312 26.7174 25.3334 26.7174H12.6667C9.16893 26.7174 6.3334 24.325 6.3334 21.3739V10.6869ZM19.0001 22.7098C14.6278 22.7098 11.0834 19.7193 11.0834 16.0304C11.0834 12.3414 14.6278 9.35099 19.0001 9.35099C23.3723 9.35099 26.9167 12.3414 26.9167 16.0304C26.9167 19.7193 23.3723 22.7098 19.0001 22.7098ZM19.0001 20.038C21.6234 20.038 23.7501 18.2438 23.7501 16.0304C23.7501 13.8171 21.6234 12.0228 19.0001 12.0228C16.3767 12.0228 14.2501 13.8171 14.2501 16.0304C14.2501 18.2438 16.3767 20.038 19.0001 20.038ZM28.5001 9.35104C28.5001 10.0888 27.7912 10.6869 26.9167 10.6869C26.0423 10.6869 25.3334 10.0888 25.3334 9.35104C25.3334 8.61325 26.0423 8.01516 26.9167 8.01516C27.7912 8.01516 28.5001 8.61325 28.5001 9.35104Z" fill="white"/>
</svg>
