<svg width="38" height="33" viewBox="0 0 38 33" fill="none" xmlns="http://www.w3.org/2000/svg">
<path fill-rule="evenodd" clip-rule="evenodd" d="M34.8724 24.217C35.9543 22.6526 36.4166 20.1301 36.4166 16.0268C36.4166 11.9398 35.9587 9.43194 34.8653 7.8256C33.7695 6.15754 32.4698 5.62809 29.8906 5.50101C28.1297 5.40031 23.7535 5.34351 19.0041 5.34351C14.2445 5.34351 9.86637 5.40029 8.09234 5.5018C5.52752 5.62839 4.22759 6.15901 3.12214 7.83171C2.04461 9.4325 1.58325 11.9526 1.58325 16.0417C1.58325 20.1077 2.04684 22.6404 3.13161 24.236C4.22269 25.8871 5.50189 26.4114 8.08854 26.5646C9.94762 26.6564 14.5736 26.7175 19.0041 26.7175C23.4248 26.7175 28.0485 26.6564 29.8906 26.5656C32.501 26.4114 33.78 25.8863 34.8724 24.217ZM29.6912 8.16741C31.3046 8.24696 31.6038 8.36931 32.1152 9.15024C32.8597 10.2381 33.2499 12.3671 33.2499 16.0417C33.2499 19.6885 32.8576 21.8292 32.1186 22.8982C31.6055 23.6816 31.3084 23.8036 29.6876 23.8994C27.944 23.9852 23.3652 24.0457 19.0041 24.0457C14.6333 24.0457 10.0521 23.9852 8.29187 23.8984C6.69109 23.8035 6.38969 23.6799 5.8879 22.9207C5.14394 21.8262 4.74991 19.6735 4.74991 16.0268C4.74991 12.3822 5.14184 10.2413 5.88183 9.14194C6.39142 8.37094 6.69494 8.24704 8.29197 8.16818C9.98295 8.07148 14.32 8.01523 19.0041 8.01523C23.6782 8.01523 28.0132 8.0715 29.6912 8.16741ZM15.8333 12.0229L23.7499 16.0305L15.8333 20.0381V12.0229Z" fill="white"/>
</svg>
